<?xml version="1.0" encoding="UTF-8"?><svg id="Layer_1" xmlns="http://www.w3.org/2000/svg" xmlns:xlink="http://www.w3.org/1999/xlink" viewBox="0 0 193.03 74.78"><defs><style>.cls-1{fill:none;}.cls-2{clip-path:url(#clippath);}.cls-3{fill:#fff;}.cls-4{fill:#333232;}.cls-5{fill:#1a508c;}.cls-6{clip-path:url(#clippath-1);}.cls-7{clip-path:url(#clippath-2);}.cls-8{opacity:.5;}.cls-9{opacity:.7;}</style><clipPath id="clippath"><rect class="cls-1" x="5" y="2.3" width="24" height="16.79"/></clipPath><clipPath id="clippath-1"><rect class="cls-1" x="15.77" y="41.33" width="29.94" height="11.21"/></clipPath><clipPath id="clippath-2"><rect class="cls-1" x="17.44" y="27.96" width="25.67" height="12.73"/></clipPath></defs><rect class="cls-5" x="2.79" y="57.83" width="188.32" height="14.66"/><polygon class="cls-3" points="9.77 61.4 12.64 65.92 15.51 61.4 16.17 61.4 16.17 68.76 15.57 68.76 15.57 62.35 12.64 66.96 9.69 62.34 9.69 68.76 9.09 68.76 9.09 61.4 9.77 61.4"/><path class="cls-3" d="m23.92,61.29c2.13,0,3.86,1.65,3.86,3.77s-1.77,3.82-3.86,3.82-3.85-1.7-3.85-3.82,1.76-3.77,3.85-3.77m-3.25,3.77c0,1.76,1.46,3.28,3.25,3.28s3.26-1.54,3.26-3.28-1.46-3.24-3.26-3.24-3.25,1.48-3.25,3.24"/><polygon class="cls-3" points="32.36 61.4 37.21 67.99 37.21 61.4 37.81 61.4 37.81 68.76 37.08 68.76 32.27 62.22 32.27 68.76 31.67 68.76 31.67 61.4 32.36 61.4"/><rect class="cls-3" x="42.21" y="61.4" width=".6" height="7.36"/><polygon class="cls-3" points="46.38 61.4 52.09 61.4 52.09 61.92 49.53 61.92 49.53 68.76 48.93 68.76 48.93 61.92 46.38 61.92 46.38 61.4"/><path class="cls-3" d="m58.62,61.29c2.13,0,3.86,1.65,3.86,3.77s-1.77,3.82-3.86,3.82-3.85-1.7-3.85-3.82,1.76-3.77,3.85-3.77m-3.25,3.77c0,1.76,1.46,3.28,3.25,3.28s3.26-1.54,3.26-3.28-1.46-3.24-3.26-3.24-3.25,1.48-3.25,3.24"/><path class="cls-3" d="m66.38,68.76v-7.36h3.28c1.41,0,2.41.95,2.41,2.25,0,1.06-.7,2.04-1.99,2.22l2.1,2.89h-.69l-2.07-2.86h-2.44v2.86h-.6Zm.6-3.39h2.51c1.35,0,1.98-.72,1.98-1.73,0-1.09-.73-1.73-1.98-1.73h-2.51v3.45Z"/><rect class="cls-3" x="75.93" y="61.4" width=".6" height="7.36"/><polygon class="cls-3" points="81.63 61.4 86.48 67.99 86.48 61.4 87.08 61.4 87.08 68.76 86.35 68.76 81.54 62.22 81.54 68.76 80.94 68.76 80.94 61.4 81.63 61.4"/><path class="cls-3" d="m94.82,61.29c1.09,0,2.08.43,2.82,1.2l-.4.37c-.61-.63-1.38-1.04-2.42-1.04-1.79,0-3.25,1.54-3.25,3.29s1.48,3.23,3.26,3.23c.93,0,1.63-.33,2.17-.83v-2.06h-2.68v-.51h3.28v2.7c-.64.81-1.69,1.22-2.78,1.22-2.11,0-3.85-1.65-3.85-3.76s1.76-3.82,3.85-3.82"/><path class="cls-3" d="m106.44,67.32c.39.34,1.37,1.02,2.9,1.02,1.38,0,2.23-.67,2.23-1.6,0-2.23-5.45-.9-5.45-3.61,0-.99.85-1.84,2.79-1.84,1.49,0,2.38.49,2.79.78l-.29.45c-.31-.21-1.12-.7-2.49-.7-1.65,0-2.19.63-2.19,1.29,0,2.15,5.45.79,5.45,3.63,0,1.23-1.12,2.13-2.82,2.13-2.05,0-3.03-.92-3.26-1.1l.35-.44Z"/><rect class="cls-3" x="116.09" y="61.4" width=".6" height="7.36"/><polygon class="cls-3" points="121.77 61.4 124.64 65.92 127.51 61.4 128.17 61.4 128.17 68.76 127.57 68.76 127.57 62.35 124.64 66.96 121.69 62.34 121.69 68.76 121.09 68.76 121.09 61.4 121.77 61.4"/><path class="cls-3" d="m132.49,68.76v-7.36h2.95c1.4,0,2.4.96,2.4,2.25,0,1.19-.93,2.25-2.39,2.25h-2.36v2.86h-.6Zm.6-3.39h2.16c1.35,0,1.99-.72,1.99-1.73,0-1.1-.74-1.73-1.99-1.73h-2.16v3.45Z"/><polygon class="cls-3" points="146.28 68.24 146.28 68.76 141.6 68.76 141.6 61.4 142.2 61.4 142.2 68.24 146.28 68.24"/><rect class="cls-3" x="150.05" y="61.4" width=".6" height="7.36"/><polygon class="cls-3" points="160.23 61.4 160.23 61.92 155.65 61.92 155.65 64.83 159.65 64.83 159.65 65.33 155.65 65.33 155.65 68.76 155.05 68.76 155.05 61.4 160.23 61.4"/><rect class="cls-3" x="164.14" y="61.4" width=".6" height="7.36"/><polygon class="cls-3" points="169.15 61.4 174.33 61.4 174.33 61.92 169.75 61.92 169.75 64.83 173.75 64.83 173.75 65.33 169.75 65.33 169.75 68.24 174.33 68.24 174.33 68.76 169.15 68.76 169.15 61.4"/><path class="cls-3" d="m181.06,61.4c2.18,0,3.75,1.55,3.75,3.68s-1.63,3.68-3.75,3.68h-2.84v-7.36h2.84Zm0,6.84c1.82,0,3.15-1.34,3.15-3.16s-1.27-3.16-3.15-3.16h-2.24v6.31h2.24Z"/><path class="cls-5" d="m53.16,28.15c-.02.13-.04.27-.05.4-.09,1.65-.35,3.28-.78,4.88-.71,2.68-1.83,5.17-3.39,7.45-.56.83-1.21,1.6-1.82,2.39-.04.05-.08.09-.13.14-.04-.05-.07-.09-.09-.13-.74-1.23-1.47-2.46-2.21-3.69-.06-.1-.06-.17.01-.26,1.25-1.65,2.23-3.45,2.92-5.41.41-1.15.71-2.33.91-3.53.27-1.65.34-3.31.21-4.97-.14-1.72-.48-3.41-1.05-5.04-.73-2.12-1.79-4.07-3.17-5.83-2.05-2.61-4.57-4.63-7.58-6.03-1.28-.6-2.62-1.05-4-1.36-2.07-.47-4.16-.61-6.27-.43-3.84.33-7.32,1.63-10.42,3.93-2.51,1.87-4.5,4.19-5.96,6.96-.23.43-.42.88-.63,1.32-.04.08-.08.14-.19.14-1.47,0-2.94,0-4.41,0-.03,0-.05,0-.11-.01.07-.21.13-.4.21-.6.68-1.81,1.54-3.52,2.62-5.12,1.19-1.78,2.58-3.38,4.19-4.8,1.76-1.56,3.7-2.85,5.83-3.86,1.42-.68,2.89-1.21,4.42-1.6,1.33-.34,2.69-.58,4.06-.68.3-.02.6-.04.91-.07.06,0,.12-.02.17-.03h2.08c.06.01.12.03.17.03.31.02.62.05.92.07,1.51.12,2.99.39,4.45.79,1.95.54,3.8,1.3,5.56,2.3,3.5,1.98,6.35,4.65,8.57,8.01,1.6,2.42,2.72,5.05,3.39,7.87.33,1.39.54,2.81.62,4.24,0,.13.03.27.05.4v2.15Z"/><g class="cls-8"><g class="cls-2"><path class="cls-5" d="m29,2.37c-.08.36-.15.72-.22,1.08-.2,1.03-.4,2.06-.59,3.09-.02.12-.09.14-.19.14-1.1.03-2.19.13-3.28.33-1.68.31-3.3.82-4.86,1.55-2.59,1.21-4.83,2.89-6.72,5.03-1.43,1.61-2.57,3.4-3.43,5.37-.03.06-.11.12-.17.12-1.48,0-2.96,0-4.44,0-.02,0-.04,0-.09-.02.07-.21.14-.41.21-.61.96-2.57,2.31-4.92,4.05-7.05,1.96-2.4,4.29-4.36,6.99-5.89,1.77-1,3.63-1.78,5.59-2.32,1.45-.4,2.93-.67,4.44-.79.34-.03.69-.07,1.03-.1.53,0,1.06,0,1.59,0,.04,0,.12-.04.1.06"/></g></g><path class="cls-5" d="m3.39,26.69c.02-.12.04-.24.05-.37.08-1.44.29-2.85.61-4.25.06-.26.13-.51.2-.77.01-.04.08-.1.13-.1,1.45,0,2.89,0,4.34,0,.02,0,.04,0,.06.01-1.86,6.15-1.29,12.01,2.15,17.49,2.2,3.5,5.23,6.08,9.01,7.76,2.64,1.17,5.42,1.73,8.32,1.71,2.89-.01,5.66-.61,8.3-1.8,2.64-1.19,4.91-2.88,6.85-5.04.03.04.06.06.07.09.73,1.21,1.45,2.42,2.18,3.63.06.1.07.16-.02.25-1.85,1.83-3.93,3.35-6.25,4.53-1.52.78-3.11,1.39-4.76,1.83-1.44.39-2.89.65-4.38.77-.36.03-.71.07-1.06.1h-2.08c-.36-.03-.72-.07-1.08-.1-1.37-.11-2.73-.34-4.06-.68-1.52-.39-3-.92-4.41-1.6-3.23-1.54-6.01-3.68-8.32-6.41-2.09-2.47-3.64-5.25-4.64-8.32-.66-2.02-1.05-4.09-1.16-6.2,0-.13-.03-.26-.05-.38v-2.15Z"/><g class="cls-8"><g class="cls-6"><path class="cls-5" d="m15.78,49.19c.06-.32.13-.63.19-.95.21-1.15.42-2.3.63-3.45,0-.05.02-.09.04-.14,4.27,2.83,8.93,3.98,14,3.37,5.08-.61,9.3-2.91,12.76-6.68.19.32.38.64.57.95.55.92,1.11,1.85,1.66,2.77.02.04.06.07.09.11v.07c-.76.67-1.5,1.38-2.29,2.02-1.75,1.41-3.69,2.53-5.77,3.4-1.36.57-2.75,1.01-4.19,1.32-1.03.23-2.07.39-3.13.48-.36.03-.72.07-1.08.1h-2.28c-.17-.02-.34-.04-.51-.06-.83-.1-1.67-.17-2.5-.29-1-.15-1.98-.4-2.95-.69-1.28-.38-2.53-.86-3.73-1.45-.51-.25-1.02-.53-1.52-.79v-.07Z"/></g></g><path class="cls-5" d="m44.09,23.52c-.04.19-.09.37-.12.56-.21,1.31-.77,2.46-1.62,3.47-.97,1.15-2.19,1.95-3.61,2.45-.08.03-.14.03-.19-.06-.69-1.15-1.38-2.3-2.06-3.46,0,0,0-.02,0-.05.09-.02.19-.04.29-.06,1.28-.31,2.23-1.02,2.72-2.26.51-1.28.13-2.74-.93-3.68-.74-.66-1.61-1-2.59-1-2.12-.01-4.24,0-6.36,0-4.72,0-9.44,0-14.16,0-2.24,0-4.49.02-6.73.02-1.21,0-2.43-.03-3.64-.05-.1,0-.2,0-.33,0,.11-.29.2-.57.31-.84.4-1.05.88-2.07,1.42-3.06.02-.03.04-.05.05-.08h30.04c.06.01.12.03.19.04.32.05.64.09.96.16,1.86.4,3.42,1.29,4.65,2.75.84,1,1.38,2.15,1.6,3.45.03.19.08.38.12.57v1.14Z"/><path class="cls-5" d="m34.77,26.79c.7,1.17,1.41,2.35,2.11,3.52,1.98,3.32,3.97,6.65,5.95,9.97.96,1.61,1.92,3.22,2.88,4.83.03.05.05.09.08.15-1.02,1.02-2.11,1.94-3.29,2.79-.17-.28-.33-.54-.49-.8-.65-1.08-1.3-2.16-1.95-3.24-.71-1.18-1.41-2.37-2.12-3.55-.63-1.05-1.26-2.11-1.89-3.16-.72-1.2-1.43-2.4-2.14-3.59-.48-.8-.96-1.6-1.44-2.41-.51-.85-1.01-1.71-1.52-2.57-.32-.54-.65-1.08-.97-1.63-.05-.09-.08-.2-.12-.3h4.91Z"/><path class="cls-5" d="m18.95,30.64s.09-.03.13-.03c1.65,0,3.29,0,4.94,0,.03.06.05.13.08.19.35.59.71,1.17,1.07,1.76.6,1,1.2,2.01,1.8,3.01.44.74.89,1.49,1.33,2.23.54.9,1.08,1.8,1.61,2.71.38.64.76,1.27,1.13,1.91.14.23.26.47.39.7h-5.04c-.03-.07-.06-.14-.1-.2-2.28-3.83-4.56-7.65-6.84-11.48-.16-.27-.34-.54-.5-.81"/><path class="cls-5" d="m38.07,43.13h-4.97c-.04-.08-.08-.15-.12-.23-.31-.52-.63-1.03-.94-1.55-.52-.86-1.03-1.73-1.54-2.59-.86-1.44-1.73-2.88-2.59-4.33-.67-1.12-1.33-2.24-2-3.36-.09-.15-.17-.31-.25-.46h5.01c.02.06.03.12.06.18.32.52.65,1.05.96,1.57.41.69.81,1.38,1.22,2.06.69,1.17,1.39,2.33,2.09,3.49.53.89,1.07,1.78,1.6,2.67.38.64.76,1.28,1.14,1.92.12.2.23.41.34.62"/><g class="cls-9"><g class="cls-7"><path class="cls-5" d="m35.51,27.96c1.27,2.12,2.54,4.24,3.81,6.36,1.24,2.08,2.48,4.15,3.72,6.23.02.04.04.07.07.13-.05,0-.09,0-.12,0-1.58-.04-3.16-.08-4.74-.11-.14,0-.22-.05-.3-.17-.58-.98-1.17-1.96-1.75-2.94-.59-.99-1.18-1.98-1.77-2.96-.58-.97-1.16-1.95-1.74-2.93-.53-.89-1.06-1.77-1.59-2.66-.19-.32-.38-.64-.57-.95h4.98Z"/><path class="cls-5" d="m17.44,28.01c1.63,0,3.26,0,4.89,0,.12,0,.19.04.25.15.28.5.58.99.87,1.48.57.95,1.14,1.89,1.71,2.83.61,1.01,1.21,2.02,1.81,3.04.58.98,1.16,1.95,1.74,2.93.35.59.69,1.18,1.04,1.76.03.05.05.09.08.16-.05,0-.08.01-.12.01-1.61-.04-3.23-.08-4.84-.11-.12,0-.18-.05-.24-.15-2.37-3.99-4.75-7.98-7.13-11.96-.02-.04-.05-.07-.08-.1v-.03Z"/><path class="cls-5" d="m36.58,40.53c-.16,0-.29,0-.42,0-1.48-.04-2.96-.07-4.44-.1-.16,0-.24-.06-.32-.19-.7-1.18-1.41-2.35-2.11-3.52-.84-1.4-1.67-2.8-2.51-4.21-.54-.9-1.08-1.79-1.61-2.68-.35-.59-.69-1.19-1.05-1.8.05,0,.09-.01.14-.01,1.58,0,3.15,0,4.73,0,.09,0,.14.03.18.11.29.5.59,1,.89,1.5.73,1.21,1.46,2.43,2.19,3.64.58.97,1.16,1.94,1.74,2.91.65,1.09,1.29,2.18,1.93,3.27.21.35.42.7.65,1.09"/></g></g><path class="cls-5" d="m16.53,26.68s.02-.06.03-.06c.04,0,.08,0,.11,0h18.03s.04.1.07.15c.77,1.29,1.54,2.57,2.31,3.86.03.05.06.1.1.18-.08,0-.12,0-.17,0-5.09,0-10.17.01-15.26.02-.86,0-1.72.02-2.58.02-.06,0-.15-.04-.18-.08-.16-.25-.3-.52-.45-.77-.64-1.08-1.28-2.15-1.93-3.23-.02-.03-.06-.05-.09-.08"/><path class="cls-5" d="m59.87,40.81c.03-.07.05-.14.08-.21.15-.32.4-.5.76-.51.02,0,.03,0,.05,0,13.8,0,27.59,0,41.39,0,.34,0,.6.12.77.42.18.31.17.63,0,.94-.15.26-.38.39-.68.4-.06,0-.12,0-.18,0h-41.11c-.66,0-.83-.11-1.07-.72v-.33Z"/><path class="cls-4" d="m121.58,45.59c-.3-.05-.6-.08-.89-.15-1.72-.43-2.75-1.55-3.13-3.26-.29-1.32-.12-2.6.6-3.77.72-1.17,1.79-1.8,3.13-1.96.95-.12,1.88-.02,2.76.41,1.25.61,1.99,1.63,2.29,2.97.32,1.41.12,2.75-.69,3.96-.68,1.02-1.67,1.56-2.87,1.74-.15.02-.3.04-.45.06h-.75Zm3.17-4.6c-.02-.19-.03-.38-.05-.57-.19-1.47-1.25-2.41-2.72-2.42-1.3-.01-2.28.68-2.66,1.9-.26.83-.22,1.66.1,2.46.32.8.89,1.33,1.74,1.51.37.08.75.1,1.13.08.96-.07,1.68-.52,2.12-1.39.25-.49.34-1.02.35-1.57"/><path class="cls-4" d="m152.76,45.59c-.3-.05-.6-.08-.89-.15-1.72-.43-2.75-1.55-3.13-3.26-.29-1.32-.12-2.6.6-3.77.72-1.17,1.79-1.8,3.13-1.96.95-.12,1.88-.02,2.76.41,1.25.61,1.99,1.63,2.29,2.97.32,1.41.12,2.75-.69,3.96-.68,1.02-1.67,1.56-2.87,1.74-.15.02-.3.04-.45.06h-.75Zm3.17-4.6c-.02-.19-.03-.38-.05-.57-.2-1.3-1.07-2.41-2.72-2.42-1.29,0-2.26.67-2.65,1.89-.27.84-.23,1.67.09,2.48.3.75.84,1.26,1.63,1.49.41.12.82.14,1.24.1.95-.09,1.68-.53,2.12-1.4.25-.49.34-1.02.35-1.57"/><path class="cls-4" d="m184.69,45.59c-.35-.04-.71-.07-1.06-.13-1.79-.32-3.05-1.63-3.33-3.42-.18-1.12-.07-2.2.42-3.23.61-1.28,1.63-2.06,3.02-2.35,1.4-.29,2.7-.06,3.87.78.2.14.38.31.58.47-.39.37-.76.72-1.15,1.08-.35-.33-.81-.59-1.33-.72-1.01-.26-1.95-.13-2.76.56-.59.49-.88,1.16-.98,1.9-.07.5-.05.99.09,1.48.29.97.92,1.59,1.9,1.82.95.22,1.86.15,2.68-.45.11-.08.15-.16.15-.29,0-.42,0-.84,0-1.29h-.19c-.61,0-1.22,0-1.84,0-.16,0-.21-.05-.2-.2.01-.4,0-.8,0-1.2,0-.13.04-.17.17-.17,1.16,0,2.33,0,3.49,0,.13,0,.18.04.18.18,0,1.15,0,2.3,0,3.45,0,.07-.04.16-.09.21-.83.93-1.86,1.43-3.1,1.49-.05,0-.11.02-.16.03h-.36Z"/><path class="cls-4" d="m116.21,11.58c.28.03.57.06.85.09,2.13.26,4.04,1.06,5.73,2.38.34.27.67.57,1.01.86-.87.89-1.72,1.76-2.56,2.63-.3-.23-.57-.47-.88-.68-1.64-1.11-3.46-1.64-5.44-1.47-3.26.28-5.68,2.34-6.51,5.52-.46,1.78-.48,3.56.13,5.31.83,2.34,2.5,3.76,4.9,4.3,1.44.33,2.9.35,4.34-.03,1.02-.27,1.91-.78,2.73-1.43.04-.03.08-.1.08-.14,0-1.25,0-2.49,0-3.74,0-.01,0-.02-.01-.05h-5.59v-3.68h9.38c0,.06,0,.12,0,.17,0,2.96,0,5.92,0,8.88,0,.09-.04.2-.1.27-1.59,1.79-3.51,3.03-5.88,3.54-1.2.26-2.42.32-3.65.26-1.18-.06-2.34-.23-3.46-.58-3.53-1.11-5.78-3.48-6.78-7.04-.44-1.57-.54-3.17-.4-4.8.17-1.86.66-3.63,1.61-5.25,1.53-2.63,3.81-4.27,6.75-4.98.77-.19,1.56-.3,2.36-.33.06,0,.12-.02.18-.03h1.2Z"/><path class="cls-4" d="m139.07,11.58c.28.03.57.06.85.09,2.13.26,4.04,1.06,5.73,2.38.34.27.67.57,1.01.86-.87.89-1.72,1.76-2.56,2.63-.3-.23-.57-.47-.88-.68-1.64-1.11-3.46-1.64-5.44-1.47-3.26.28-5.68,2.34-6.51,5.52-.46,1.78-.48,3.56.13,5.31.83,2.34,2.5,3.76,4.9,4.3,1.44.33,2.9.35,4.34-.03,1.02-.27,1.91-.78,2.73-1.43.04-.03.08-.1.08-.14,0-1.25,0-2.49,0-3.74,0-.01,0-.02-.01-.05h-5.59v-3.68h9.38c0,.06,0,.12,0,.17,0,2.96,0,5.92,0,8.88,0,.09-.04.2-.1.27-1.59,1.79-3.51,3.03-5.88,3.54-1.2.26-2.42.32-3.65.26-1.18-.06-2.34-.23-3.46-.58-3.53-1.11-5.78-3.48-6.78-7.04-.44-1.57-.54-3.17-.4-4.8.17-1.86.66-3.63,1.61-5.25,1.53-2.63,3.81-4.27,6.75-4.98.78-.19,1.56-.3,2.36-.33.06,0,.12-.02.18-.03h1.2Z"/><path class="cls-4" d="m59.91,34.11V12.17c.07,0,.13,0,.2,0,2.36,0,4.72.01,7.09.01,1.03,0,2.07-.01,3.1,0,1.64,0,3.2.32,4.61,1.19,1.84,1.13,2.9,2.79,3.24,4.92.22,1.4.09,2.77-.41,4.09-.71,1.89-2.1,3.08-3.99,3.71-.33.11-.68.19-1.03.29.03.04.06.08.09.12,2.14,2.41,4.27,4.81,6.42,7.21.11.13.13.25.1.41-.06,0-.11,0-.16,0-1.53,0-3.07,0-4.6,0-.11,0-.18-.03-.25-.11-2.06-2.36-4.13-4.72-6.19-7.09-.07-.09-.15-.12-.26-.12-1.21,0-2.43,0-3.64,0h-.18v7.3h-4.13Zm4.13-11.02h.2c1.99,0,3.99,0,5.98,0,.35,0,.71-.02,1.05-.09,1.25-.23,2.15-.91,2.6-2.11.32-.87.32-1.76,0-2.64-.34-.93-.98-1.58-1.91-1.94-.54-.21-1.1-.28-1.67-.29-2.03,0-4.05,0-6.08,0h-.18v7.07Z"/><path class="cls-4" d="m169.9,34.12V12.18s.09,0,.14,0c2.9,0,5.81-.01,8.71,0,1.89.01,3.71.39,5.39,1.29,2.16,1.16,3.63,2.93,4.51,5.2.67,1.72.9,3.51.79,5.36-.11,1.75-.54,3.41-1.4,4.94-1.42,2.54-3.58,4.11-6.39,4.8-1.01.25-2.04.36-3.07.36-2.84,0-5.68,0-8.52,0h-.17Zm4.1-3.97h.21c1.4,0,2.8.02,4.19,0,.6,0,1.22-.05,1.81-.16,2.05-.4,3.58-1.52,4.45-3.44.86-1.88.92-3.83.36-5.8-.42-1.49-1.24-2.72-2.56-3.58-1.15-.76-2.45-1.05-3.81-1.07-1.51-.02-3.01,0-4.52,0-.05,0-.09,0-.14,0v14.06Z"/><polygon class="cls-4" points="154.66 16.17 154.66 21.27 166.51 21.27 166.51 25.11 154.66 25.11 154.66 30.05 166.96 30.05 166.96 34.1 150.56 34.1 150.56 12.18 166.95 12.18 166.95 16.17 154.66 16.17"/><path class="cls-4" d="m96.8,12.24h4.09s.01.08.01.12c0,4.24.01,8.47,0,12.71,0,1.65-.3,3.25-1.03,4.75-1.13,2.31-2.98,3.73-5.44,4.39-1.43.38-2.89.45-4.37.3-1.47-.16-2.86-.57-4.13-1.34-2.06-1.24-3.31-3.07-3.9-5.37-.25-.96-.35-1.95-.36-2.94,0-4.16,0-8.32,0-12.48v-.13h4.1v.2c0,4.16,0,8.32,0,12.48,0,.95.15,1.89.52,2.77.71,1.67,1.98,2.64,3.74,2.99,1.07.21,2.15.21,3.2-.11,1.64-.49,2.66-1.6,3.2-3.19.29-.87.39-1.77.39-2.69,0-4.09,0-8.17,0-12.26v-.21Z"/><path class="cls-4" d="m114.24,39.25c-.5.66-1,1.32-1.49,1.98-.38.51-.76,1.01-1.14,1.52-.12.16-.42.16-.54,0-.83-1.13-1.65-2.25-2.48-3.38-.03-.05-.07-.09-.14-.13v.17c0,1.92,0,3.84,0,5.75q0,.22-.21.22c-.45,0-.9,0-1.35,0-.14,0-.19-.05-.19-.19,0-2.81,0-5.61,0-8.42,0-.14.05-.19.19-.19.54,0,1.08,0,1.63,0,.12,0,.19.03.25.13.83,1.14,1.66,2.28,2.49,3.41.03.04.06.09.11.15.04-.05.08-.09.11-.14.83-1.14,1.66-2.27,2.49-3.41.07-.1.14-.14.26-.14.54,0,1.07,0,1.61,0,.14,0,.19.04.19.19,0,2.81,0,5.61,0,8.42,0,.14-.04.19-.19.19-.46,0-.91,0-1.37,0-.16,0-.2-.05-.2-.21,0-1.91,0-3.83,0-5.74v-.19s-.03,0-.04,0"/><path class="cls-4" d="m160.86,42.47v.2c0,.85,0,1.69,0,2.54,0,.13-.04.18-.18.18-.47,0-.93,0-1.4,0-.13,0-.18-.05-.18-.18,0-2.82,0-5.64,0-8.47,0-.12.03-.18.16-.18,1.47,0,2.94-.03,4.4.03,1.42.06,2.49.96,2.75,2.26.19.94.05,1.84-.6,2.59-.35.41-.81.64-1.32.79-.04.01-.07.02-.11.03,0,0-.02.01-.04.02.2.23.4.46.6.68.63.71,1.26,1.42,1.89,2.13.05.05.06.14.08.21-.07.02-.13.07-.2.07-.56,0-1.12,0-1.67,0-.11,0-.18-.03-.25-.11-.78-.9-1.56-1.79-2.34-2.68-.07-.08-.14-.12-.26-.12-.44,0-.89,0-1.35,0m0-1.61s.03.02.04.02c.89,0,1.79.02,2.68-.02.67-.03,1.12-.54,1.17-1.22.05-.66-.33-1.22-.96-1.38-.17-.04-.34-.06-.51-.06-.75,0-1.49,0-2.24,0-.06,0-.11,0-.17,0v2.65Z"/><path class="cls-4" d="m133.61,41.86v-.21c0-1.63,0-3.25,0-4.88,0-.17.05-.21.21-.21.45,0,.9,0,1.35,0,.14,0,.19.04.19.18,0,2.82,0,5.64,0,8.47,0,.14-.05.18-.18.18-.25,0-.51,0-.76,0-.12,0-.19-.04-.26-.13-1.41-1.82-2.83-3.63-4.24-5.45-.04-.05-.08-.1-.15-.19v.23c0,1.77,0,3.53,0,5.3q0,.24-.23.24c-.44,0-.89,0-1.33,0-.14,0-.19-.05-.19-.19,0-2.82,0-5.63,0-8.45,0-.14.04-.19.18-.19.35,0,.7,0,1.06,0,.12,0,.2.03.27.13,1.31,1.66,2.62,3.33,3.93,4.99.04.05.08.1.15.18"/><path class="cls-4" d="m177.08,41.86v-1.56c0-1.18,0-2.35,0-3.53,0-.16.05-.22.21-.21.45,0,.91,0,1.37,0,.14,0,.18.05.18.18,0,2.82,0,5.64,0,8.47,0,.13-.05.18-.18.18-.26,0-.52,0-.78,0-.1,0-.17-.03-.23-.11-1.3-1.67-2.6-3.34-3.9-5.01-.16-.2-.31-.4-.5-.59v5.46q0,.25-.26.25c-.43,0-.87,0-1.3,0-.14,0-.19-.04-.19-.19,0-2.82,0-5.63,0-8.45,0-.16.05-.19.2-.19.35,0,.7,0,1.06,0,.12,0,.19.04.26.13,1.31,1.67,2.63,3.33,3.94,5,.04.05.07.09.14.17"/><path class="cls-4" d="m145.02,38.16v.22c0,2.26,0,4.53,0,6.79q0,.21-.22.21c-.43,0-.86,0-1.28,0q-.25,0-.25-.24c0-2.25,0-4.51,0-6.76v-.23h-.21c-.79,0-1.57,0-2.36,0-.15,0-.2-.04-.2-.19,0-.41,0-.81,0-1.22,0-.15.05-.18.19-.18,2.3,0,4.59,0,6.89,0,.14,0,.19.04.19.18,0,.41,0,.82,0,1.24,0,.14-.05.17-.18.17-.79,0-1.58,0-2.37,0h-.21Z"/><path class="cls-4" d="m137.1,40.98c0-1.4,0-2.8,0-4.19,0-.22,0-.22.22-.22.44,0,.89,0,1.33,0,.14,0,.19.05.19.19,0,2.82,0,5.63,0,8.45,0,.14-.04.19-.19.19-.45,0-.9,0-1.35,0-.16,0-.21-.05-.2-.21,0-1.4,0-2.81,0-4.21"/><path class="cls-4" d="m169.56,40.99c0,1.39,0,2.78,0,4.18,0,.22,0,.22-.22.22-.44,0-.89,0-1.33,0-.14,0-.19-.05-.19-.19,0-2.82,0-5.63,0-8.45,0-.14.05-.19.19-.19.45,0,.9,0,1.35,0,.16,0,.2.05.2.21,0,1.41,0,2.82,0,4.23"/></svg>